HIERARCHY
ROOT Hips
{
    OFFSET 0.000000 0.000000 0.000000
    CHANNELS 6 Xposition Yposition Zposition Zrotation Xrotation Yrotation
        JOINT Chest
        {
            OFFSET -0.000000 31.571314 -0.000000
            CHANNELS 3 Zrotation Xrotation Yrotation
            JOINT Neck
            {
                OFFSET -0.000000 23.394884 0.000000
                CHANNELS 3 Zrotation Xrotation Yrotation
                JOINT Head
                {
                    OFFSET -0.000000 10.877778 0.000000
                    CHANNELS 3 Zrotation Xrotation Yrotation
                    End Site
                    {
                        OFFSET -0.000000 16.811111 0.000000
                    }
                }
            }
            JOINT LeftCollar
            {
                OFFSET -0.000000 23.394884 0.000000
                CHANNELS 3 Zrotation Xrotation Yrotation
                JOINT LeftShoulder
                {
                    OFFSET 21.500002 -0.000000 0.000000
                    CHANNELS 3 Zrotation Xrotation Yrotation
                    JOINT LeftElbow
                    {
                        OFFSET 24.792776 0.000000 0.000000
                        CHANNELS 3 Zrotation Xrotation Yrotation
                        JOINT LeftWrist
                        {
                            OFFSET 26.439411 0.000000 0.000000
                            CHANNELS 3 Zrotation Xrotation Yrotation
                            End Site
                            {
                                OFFSET 0.000000 -14.833334 0.000000
                            }
                        }
                    }
                }
            }
            JOINT RightCollar
            {
                OFFSET -0.000000 23.394884 0.000000
                CHANNELS 3 Zrotation Xrotation Yrotation
                JOINT RightShoulder
                {
                    OFFSET -21.500002 0.000000 0.000000
                    CHANNELS 3 Zrotation Xrotation Yrotation
                    JOINT RightElbow
                    {
                        OFFSET -24.792776 0.000000 0.000000
                        CHANNELS 3 Zrotation Xrotation Yrotation
                        JOINT RightWrist
                        {
                            OFFSET -26.439411 0.000000 0.000000
                            CHANNELS 3 Zrotation Xrotation Yrotation
                            End Site
                            {
                                OFFSET -0.000000 -14.833334 0.000000
                            }
                        }
                    }
                }
            }
        }
    JOINT LeftHip
    {
        OFFSET 11.866667 0.000000 0.000000
        CHANNELS 3 Zrotation Xrotation Yrotation
        JOINT LeftKnee
        {
            OFFSET -0.000000 -38.580112 0.000000
            CHANNELS 3 Zrotation Xrotation Yrotation
            JOINT LeftAnkle
            {
                OFFSET -0.000000 -41.767254 0.000000
                CHANNELS 3 Zrotation Xrotation Yrotation
                End Site
                {
                    OFFSET -0.000000 -4.944444 16.811111
                }
            }
        }
    }
    JOINT RightHip
    {
        OFFSET -11.866667 0.000000 0.000000
        CHANNELS 3 Zrotation Xrotation Yrotation
        JOINT RightKnee
        {
            OFFSET -0.000000 -38.580112 0.000000
            CHANNELS 3 Zrotation Xrotation Yrotation
            JOINT RightAnkle
            {
                OFFSET -0.000000 -41.767254 0.000000
                CHANNELS 3 Zrotation Xrotation Yrotation
                End Site
                {
                    OFFSET -0.000000 -4.944444 16.811111
                }
            }
        }
    }
}
MOTION
Frames:    14
Frame Time:    0.010000
85.169937    89.930496    -46.132011    -5.660758    1.615276    -83.219917    4.382255    14.734426    1.192028    6.083438    0.007863    15.483008    -7.809784    -4.866479    15.282493    -20.537260    -1.120443    6.332798    -19.048355    46.446228    -42.850643    16.391289    -15.874392    -88.278831    109.929176    10.360858    62.457027    13.453067    -0.456080    -3.628570    -53.831734    74.126549    108.274788    -51.056141    -18.947084    38.457176    -111.006073    11.237755    -45.423809    13.343268    3.362157    14.332781    -2.461394    9.001177    -1.980615    -13.032346    -4.624460    17.369110    -2.396669    0.609915    -2.685757    -0.274590    18.768089    2.276167    -1.472818    -10.242152    -12.650663    
85.193695    89.935532    -46.180870    -5.713949    1.638556    -83.231560    4.199678    14.535769    1.121771    8.404850    0.409573    14.909315    -9.818419    -6.315112    14.382794    -20.225769    -1.002366    5.187098    -18.925697    46.834415    -42.477802    16.303715    -15.784471    -88.339790    110.176071    10.337974    62.379574    14.059052    -0.533911    -4.579789    -53.569664    74.406181    108.092590    -51.239269    -18.983349    38.325943    -111.024109    11.245502    -45.375866    13.423820    3.394249    14.310391    -2.499090    8.994537    -1.779954    -13.057539    -4.527492    17.216772    -2.329887    0.615800    -2.732464    -0.309143    18.804653    2.426658    -1.873654    -10.081903    -12.687976    
85.196808    89.921173    -46.215729    -5.791145    1.654681    -83.273743    4.266145    14.705360    1.075262    8.215662    0.324745    14.948510    -9.719756    -6.325448    14.434134    -20.212044    -0.966712    5.208686    -18.849670    46.743225    -42.695171    16.357504    -15.896079    -88.304779    109.919868    10.255721    62.226421    13.978626    -0.555513    -4.612112    -53.285305    74.313591    107.792870    -51.275051    -18.974447    38.383743    -110.942787    11.304601    -45.329342    13.538756    3.421426    14.445607    -2.572671    9.092691    -1.819331    -13.039811    -4.488801    17.153379    -2.268598    0.643569    -2.647836    -0.304174    18.841343    2.390029    -1.611912    -10.175550    -12.738008    
85.215935    89.926796    -46.250580    -5.839673    1.664764    -83.293320    4.280230    14.754764    1.029575    8.213796    0.351544    14.955092    -9.756201    -6.376292    14.435712    -20.205217    -0.946228    5.186532    -18.809952    46.737663    -42.768780    16.400162    -15.944182    -88.279236    109.899170    10.231409    62.188412    13.967250    -0.582662    -4.625476    -53.667831    74.318871    108.170242    -51.410610    -19.000130    38.268848    -110.912598    11.345181    -45.311813    13.611942    3.433369    14.499249    -2.615700    9.149014    -1.802855    -13.044916    -4.456767    17.099791    -2.225960    0.655641    -2.623515    -0.313398    18.869547    2.423375    -1.641894    -10.161357    -12.777313    
85.240463    89.934967    -46.291065    -5.894686    1.673034    -83.314438    4.291403    14.817963    0.974553    8.192088    0.375449    14.969545    -9.779914    -6.432583    14.445687    -20.197004    -0.925619    5.174001    -18.762041    46.728214    -42.855862    16.442501    -15.981396    -88.253052    109.876572    10.196406    62.138790    13.952587    -0.561627    -4.631321    -54.094891    74.282242    108.582512    -51.534172    -19.008600    38.154392    -110.931770    11.450800    -45.316135    13.692445    3.443368    14.556753    -2.664380    9.218377    -1.785857    -13.052808    -4.423759    17.039827    -2.180553    0.669246    -2.589919    -0.322331    18.901474    2.454071    -1.666382    -10.148548    -12.820105    
85.269783    89.944733    -46.336235    -5.954996    1.678559    -83.336746    4.296947    14.892069    0.911234    8.164045    0.400510    14.988295    -9.800088    -6.500563    14.459624    -20.187725    -0.890376    5.163787    -18.705196    46.700336    -42.952549    16.472303    -16.002834    -88.231682    109.871307    10.154148    62.088928    13.935217    -0.560220    -4.634285    -54.715366    74.225540    109.195984    -51.774925    -19.031782    37.898201    -110.923592    11.496076    -45.341427    13.777897    3.451370    14.612383    -2.719012    9.298245    -1.758081    -13.063437    -4.388139    16.969885    -2.134284    0.684191    -2.544672    -0.329039    18.935364    2.475969    -1.683816    -10.135599    -12.863348    
85.303505    89.955246    -46.385048    -6.018958    1.680675    -83.360458    4.295655    14.974034    0.841495    8.131665    0.428706    15.011980    -9.818131    -6.577978    14.477285    -20.173429    -0.908949    5.154215    -18.643528    46.720383    -43.059822    16.563311    -16.113714    -88.166351    109.761833    10.031439    61.989132    13.919200    -0.578769    -4.633809    -55.384186    74.174591    109.856247    -52.032333    -19.026457    37.626102    -110.959000    11.574893    -45.400520    13.866054    3.457003    14.661098    -2.780154    9.386038    -1.708266    -13.076740    -4.348001    16.886209    -2.089656    0.699389    -2.485878    -0.330776    18.969467    2.481886    -1.693001    -10.119626    -12.902061    
85.341530    89.965942    -46.436260    -6.084425    1.678868    -83.386116    4.287926    15.061099    0.767620    8.091636    0.458643    15.042227    -9.831874    -6.659303    14.501768    -20.160879    -0.935908    5.145137    -18.601395    46.733673    -43.130379    16.633034    -16.154903    -88.125374    109.740677    9.954093    61.974968    13.910166    -0.558190    -4.627171    -55.824482    74.117935    110.272011    -52.203907    -18.981895    37.450478    -111.075874    11.721513    -45.465141    13.954709    3.458977    14.698904    -2.848344    9.479786    -1.626335    -13.092377    -4.301290    16.785728    -2.050131    0.712756    -2.412790    -0.323944    19.002443    2.465879    -1.692856    -10.096792    -12.930855    
85.384300    89.976585    -46.488461    -6.148783    1.672607    -83.414711    4.273009    15.151124    0.692481    8.048404    0.485216    15.079481    -9.843904    -6.734244    14.533759    -20.156456    -0.915648    5.132797    -18.566786    46.682930    -43.177238    16.660635    -16.109825    -88.122223    109.768974    9.897068    61.994480    13.901149    -0.577308    -4.616940    -56.306877    74.069862    110.737656    -52.452255    -18.958836    37.178837    -111.161903    11.776382    -45.524376    14.041406    3.455048    14.722207    -2.923883    9.577883    -1.503473    -13.110682    -4.245335    16.667345    -2.019983    0.720740    -2.326206    -0.304845    19.034040    2.425117    -1.681793    -10.063039    -12.945546    
85.432838    89.987305    -46.540031    -6.209166    1.661061    -83.447403    4.251199    15.242446    0.619869    8.001365    0.503468    15.124393    -9.855177    -6.794814    14.574147    -20.159260    -0.881498    5.116767    -18.529646    46.599892    -43.226166    16.660185    -16.096699    -88.122223    109.764359    9.810067    61.983902    13.895968    -0.542515    -4.602730    -56.542545    74.012054    110.939072    -52.574081    -18.897184    37.042179    -111.334595    11.924438    -45.590576    14.123546    3.441852    14.726043    -3.007475    9.679576    -1.330828    -13.132487    -4.177029    16.531210    -2.004270    0.718313    -2.228428    -0.270185    19.065872    2.361605    -1.654235    -10.015652    -12.945727    
85.488762    89.998520    -46.589092    -6.263513    1.642738    -83.484985    4.221090    15.334374    0.552940    7.955445    0.510136    15.174805    -9.870135    -6.837403    14.620077    -20.162319    -0.921493    5.095187    -18.500845    46.570972    -43.267036    16.704512    -16.186937    -88.083839    109.636818    9.657915    61.926125    13.884235    -0.561418    -4.586741    -56.918648    73.959015    111.297043    -52.816715    -18.874758    36.753899    -111.433517    11.937037    -45.647690    14.199111    3.414514    14.706532    -3.100360    9.787976    -1.102400    -13.159591    -4.093990    16.377653    -2.008622    0.700295    -2.123679    -0.217715    19.100952    2.280422    -1.599022    -9.953769    -12.933249    
85.554298    90.010963    -46.633316    -6.310713    1.614971    -83.528076    4.179114    15.427120    0.493448    7.917303    0.505883    15.225736    -9.894759    -6.864576    14.666947    -20.176964    -0.902935    5.064828    -18.490774    46.462547    -43.256798    16.650459    -16.083134    -88.124191    109.701294    9.634432    62.011509    13.873404    -0.532485    -4.570923    -57.062687    73.903923    111.408646    -52.931652    -18.805742    36.610203    -111.617714    12.061462    -45.705067    14.266105    3.366476    14.660942    -3.204188    9.911028    -0.814946    -13.194333    -3.995386    16.205612    -2.039580    0.661153    -2.017470    -0.146498    19.144724    2.190404    -1.504099    -9.878656    -12.912525    
85.632095    90.025429    -46.670040    -6.350159    1.574467    -83.576698    4.120730    15.520938    0.441497    7.886761    0.494117    15.274302    -9.928308    -6.884618    14.710722    -20.195454    -0.904567    5.026926    -18.460014    46.363346    -43.276352    16.603924    -16.069132    -88.129417    109.650085    9.520848    62.000767    13.854683    -0.559056    -4.554340    -57.316307    73.861443    111.646912    -53.150295    -18.777975    36.334175    -111.748016    12.076029    -45.721439    14.323054    3.289361    14.588124    -3.320568    10.061357    -0.469410    -13.239300    -3.883095    16.012360    -2.103179    0.595372    -1.917014    -0.058013    19.203974    2.104241    -1.363669    -9.792590    -12.889660    
85.724380    90.042610    -46.696762    -6.381472    1.518056    -83.630127    4.041314    15.615477    0.396193    7.861941    0.480026    15.317007    -9.966282    -6.910055    14.747484    -20.221128    -0.867099    4.982628    -18.421545    46.214794    -43.292702    16.525938    -15.958173    -88.155609    109.675743    9.451530    62.058773    13.837317    -0.523304    -4.536042    -57.271679    73.817337    111.568665    -53.210854    -18.699850    36.236099    -111.985825    12.218184    -45.698406    14.369747    3.174832    14.488423    -3.451338    10.253207    -0.075017    -13.296960    -3.762367    15.797195    -2.203132    0.498068    -1.829586    0.043309    19.286400    2.038297    -1.181196    -9.699206    -12.873762    
